<svg xmlns="http://www.w3.org/2000/svg" viewBox="0 0 512 512" fill="none">
  <defs>
    <linearGradient id="bg" x1="0" x2="1" y1="0" y2="1">
      <stop offset="0" stop-color="#04070d"/>
      <stop offset="1" stop-color="#121826"/>
    </linearGradient>
    <radialGradient id="beam" cx="50%" cy="42%" r="58%">
      <stop offset="0" stop-color="#ffd76a" stop-opacity=".95"/>
      <stop offset=".45" stop-color="#f4a600" stop-opacity=".42"/>
      <stop offset="1" stop-color="#f4a600" stop-opacity="0"/>
    </radialGradient>
    <linearGradient id="floor" x1="0" x2="0" y1="0" y2="1">
      <stop offset="0" stop-color="#ffbf3a" stop-opacity=".75"/>
      <stop offset="1" stop-color="#8f5400" stop-opacity=".15"/>
    </linearGradient>
  </defs>
  <rect width="512" height="512" rx="36" fill="url(#bg)"/>
  <circle cx="256" cy="210" r="168" fill="url(#beam)"/>
  <ellipse cx="256" cy="168" rx="150" ry="58" stroke="#ffcc57" stroke-opacity=".9" stroke-width="10"/>
  <ellipse cx="256" cy="168" rx="112" ry="42" stroke="#ffcc57" stroke-opacity=".45" stroke-width="6"/>
  <ellipse cx="256" cy="372" rx="176" ry="64" stroke="url(#floor)" stroke-width="10"/>
  <ellipse cx="256" cy="372" rx="120" ry="42" stroke="#ffcc57" stroke-opacity=".45" stroke-width="6"/>
  <path d="M256 118v194" stroke="#ffe08b" stroke-opacity=".88" stroke-width="7" stroke-linecap="round"/>
  <path d="M210 250c4-42 28-76 46-92 18 16 42 50 46 92 4 46-13 86-46 110-33-24-50-64-46-110Z" fill="#f3f4f6" fill-opacity=".92"/>
  <circle cx="256" cy="144" r="34" fill="#f7e6bf"/>
  <path d="M223 145c2-24 18-42 33-42 18 0 35 18 38 42-9-8-22-13-38-13-14 0-25 4-33 13Z" fill="#d8b465"/>
  <path d="M225 250c14 14 31 21 31 21s17-7 31-21" stroke="#0b1220" stroke-opacity=".22" stroke-width="8" stroke-linecap="round"/>
  <text x="256" y="445" fill="#f8f8f8" font-family="system-ui, -apple-system, BlinkMacSystemFont, 'Segoe UI', sans-serif" font-size="28" font-weight="700" letter-spacing="10" text-anchor="middle">ALICE</text>
  <text x="256" y="474" fill="#d7d9de" fill-opacity=".7" font-family="system-ui, -apple-system, BlinkMacSystemFont, 'Segoe UI', sans-serif" font-size="15" letter-spacing="4" text-anchor="middle">DEFAULT STAGE AVATAR</text>
</svg>
